<svg width="25" height="24" viewBox="0 0 25 24" fill="none" xmlns="http://www.w3.org/2000/svg">
<path d="M12.5 2C18.0228 2.00003 22.5 6.47718 22.5 12C22.5 17.5228 18.0228 22 12.5 22C6.97726 21.9999 2.5 17.5228 2.5 12C2.50001 6.47724 6.97727 2.00013 12.5 2ZM17.8975 8.97168C17.5114 8.57697 16.8783 8.57029 16.4834 8.95605L11.5527 13.7764L9.23828 11.4619C8.84785 11.0716 8.21473 11.0717 7.82422 11.4619C7.43373 11.8524 7.43381 12.4854 7.82422 12.876L10.3145 15.3662C10.9925 16.0438 12.09 16.0502 12.7754 15.3799L17.8818 10.3857C18.276 9.99968 18.283 9.36639 17.8975 8.97168Z" fill="white"/>
</svg>
