<svg width="24" height="24" viewBox="0 0 24 24" fill="none" xmlns="http://www.w3.org/2000/svg">
<g clip-path="url(#clip0_62_751)">
<path d="M12.0004 4.39941C17.6721 4.39956 20.8539 9.3233 21.8797 11.2448C22.134 11.7211 22.1336 12.2796 21.8793 12.7559C20.8529 14.6779 17.6711 19.5995 12.0004 19.5996C6.33026 19.5996 3.14857 14.6792 2.12177 12.7565C1.86731 12.28 1.86679 11.7209 2.12118 11.2444C3.14713 9.32262 6.32887 4.39941 12.0004 4.39941ZM14.2504 8.10254C12.3866 7.02666 9.86796 7.8995 8.62536 10.0518C7.3829 12.204 7.88669 14.8215 9.75036 15.8975C11.6141 16.9734 14.1327 16.1005 15.3754 13.9482C16.6178 11.796 16.114 9.17853 14.2504 8.10254Z" fill="white"/>
</g>
<defs>
<clipPath id="clip0_62_751">
<rect width="24" height="24" fill="white"/>
</clipPath>
</defs>
</svg>
