<svg width="49" height="48" viewBox="0 0 49 48" fill="none" xmlns="http://www.w3.org/2000/svg">
<g clip-path="url(#clip0_62_982)">
<path d="M33.2106 15.2883C33.6008 15.6788 33.6008 16.312 33.2106 16.7025L26.1494 23.7637C26.0193 23.8938 26.0193 24.1049 26.1494 24.2351L33.2106 31.2962C33.6011 31.6868 33.6011 32.3199 33.2106 32.7105C32.8201 33.1009 32.1869 33.1009 31.7964 32.7105L24.7352 25.6493C24.605 25.5191 24.394 25.5191 24.2638 25.6493L17.2026 32.7105L17.1267 32.7795C16.734 33.0996 16.1545 33.0762 15.7884 32.7105C15.4224 32.3444 15.3992 31.765 15.7194 31.3722L15.7884 31.2962L22.8496 24.2351C22.9798 24.1049 22.9798 23.8938 22.8496 23.7637L15.7884 16.7025L15.7194 16.6265C15.3995 16.2338 15.4226 15.6543 15.7884 15.2883C16.1544 14.9223 16.7339 14.8993 17.1267 15.2192L17.2026 15.2883L24.2638 22.3495C24.394 22.4796 24.605 22.4796 24.7352 22.3495L31.7964 15.2883C32.1869 14.898 32.8202 14.8978 33.2106 15.2883Z" fill="white"/>
</g>
<defs>
<clipPath id="clip0_62_982">
<rect width="24" height="24" fill="white" transform="translate(12.5 12)"/>
</clipPath>
</defs>
</svg>
