<svg width="24" height="24" viewBox="0 0 24 24" fill="none" xmlns="http://www.w3.org/2000/svg">
<circle cx="12" cy="12" r="12" fill="#2979FF"/>
<path fill-rule="evenodd" clip-rule="evenodd" d="M19.75 11.219L18.0148 6.89434L16.9456 5.79073L12.7561 3.99951H11.2439L7.05512 5.79073L5.986 6.89434L4.25 11.219V12.78L5.986 17.1047L7.05512 18.2083L11.2439 19.9995H12.7561L16.9456 18.2075L18.0148 17.1039L19.75 12.78V11.219Z" fill="white"/>
<path d="M8.75 15.0913L10.8198 8.75H12.4766V10.2617H11.9448L10.71 15.0913H8.75ZM10.0508 13.8301L10.4551 12.5161H13.4565L13.8608 13.8301H10.0508ZM13.2676 15.0913L12.0327 10.2617V8.75H13.1577L15.2275 15.0913H13.2676Z" fill="#2E82F7"/>
</svg>
