<svg width="75" height="74" viewBox="0 0 75 74" fill="none" xmlns="http://www.w3.org/2000/svg">
<rect x="0.5" width="74" height="74" rx="24" fill="#2979FF"/>
<path d="M37.5 16.7131C47.3437 16.7132 55.3277 24.8077 55.3279 34.7975V35.0135L55.3047 35.2283L54.421 43.344C54.1097 46.2024 52.6779 48.8094 50.4558 50.5812L50.238 50.7497L44.9176 54.7701C42.7547 56.4043 40.1295 57.2868 37.4331 57.2869C34.8135 57.2868 32.2623 56.4476 30.1432 54.8924L29.94 54.7393L23.9524 50.154C22.4258 48.9848 21.0329 47.2351 20.52 44.9354L20.4732 44.7113C20.084 42.7148 19.6721 39.4922 19.6721 34.7975C19.6723 24.8076 27.6563 16.7132 37.5 16.7131ZM37.5 20.6354C29.7885 20.6355 23.5371 26.976 23.537 34.7975L23.5412 35.6166C23.5854 39.6254 23.9492 42.3335 24.2644 43.9501C24.5091 45.2042 25.2743 46.2527 26.2802 47.0231L32.2678 51.6083C33.6626 52.6765 35.3438 53.2853 37.0846 53.3572L37.4331 53.3646C39.1817 53.3645 40.8871 52.8283 42.3259 51.83L42.6099 51.6238L47.9303 47.6039C49.3236 46.5512 50.2538 44.992 50.5324 43.2619L50.5798 42.9131L51.463 34.7975C51.4629 27.0983 45.4055 20.8338 37.8607 20.6397L37.5 20.6354ZM27.0387 32.8456C29.0961 31.6408 32.4751 33.6698 34.5859 37.3778C36.6965 41.0858 36.7394 45.0682 34.682 46.273C32.6246 47.4777 29.2461 45.4487 27.1354 41.7408C25.0247 38.0329 24.9813 34.0504 27.0387 32.8456ZM40.6307 37.3778C42.7414 33.6698 46.1204 31.6408 48.1779 32.8456C50.2351 34.0505 50.1918 38.0329 48.0811 41.7408C45.9704 45.4488 42.5914 47.4778 40.5339 46.273C38.4768 45.0681 38.52 41.0857 40.6307 37.3778Z" fill="white"/>
</svg>
