<svg width="49" height="48" viewBox="0 0 49 48" fill="none" xmlns="http://www.w3.org/2000/svg">
<g clip-path="url(#clip0_62_972)">
<path d="M33.5 25.9997C34.0523 25.9997 34.5 26.4475 34.5 26.9997V30.4997C34.5 32.4327 32.933 33.9997 31 33.9997H18C16.067 33.9997 14.5 32.4327 14.5 30.4997V26.9997C14.5 26.4475 14.9477 25.9997 15.5 25.9997C16.0523 25.9997 16.5 26.4475 16.5 26.9997V30.4997C16.5 31.3282 17.1716 31.9997 18 31.9997H31C31.8284 31.9997 32.5 31.3282 32.5 30.4997V26.9997C32.5 26.4475 32.9477 25.9997 33.5 25.9997ZM23.0293 14.9499C23.8208 14.087 25.1813 14.0868 25.9727 14.9499L30.7383 20.1482C31.1111 20.5552 31.0836 21.1881 30.6768 21.5613C30.2697 21.9342 29.6368 21.9065 29.2637 21.4997L26.3691 18.3425C26.061 18.0063 25.501 18.2244 25.501 18.6804V28.5134L25.4961 28.615C25.4451 29.1193 25.0188 29.5133 24.501 29.5134C23.9831 29.5133 23.5569 29.1194 23.5059 28.615L23.501 28.5134V18.6804C23.501 18.2244 22.94 18.0063 22.6318 18.3425L19.7383 21.4997L19.665 21.572C19.2867 21.9086 18.7067 21.9107 18.3252 21.5613C17.9437 21.2115 17.8956 20.6336 18.1982 20.2273L18.2637 20.1482L23.0293 14.9499Z" fill="white"/>
</g>
<defs>
<clipPath id="clip0_62_972">
<rect width="24" height="24" fill="white" transform="translate(12.5 12)"/>
</clipPath>
</defs>
</svg>
