<svg width="24" height="24" viewBox="0 0 24 24" fill="none" xmlns="http://www.w3.org/2000/svg">
<path d="M18.5568 12.1883C18.6965 12.328 18.6269 12.5672 18.4339 12.6095L14.9557 13.3712C14.8624 13.3916 14.7767 13.4384 14.7091 13.5058L7.75063 20.4643C6.96955 21.245 5.70312 21.2452 4.92221 20.4643L3.50247 19.0446C2.72181 18.2636 2.72191 16.9972 3.50247 16.2162L10.461 9.25764C10.5284 9.19011 10.5752 9.10434 10.5956 9.01112L11.358 5.53359C11.4003 5.34062 11.6388 5.27042 11.7785 5.40999L18.5568 12.1883ZM11.6494 13.6432C11.9586 13.1076 11.8333 12.4563 11.3697 12.1883C10.9058 11.9204 10.2787 12.1374 9.96932 12.673C9.66003 13.2087 9.78521 13.86 10.249 14.128C10.7129 14.3958 11.3401 14.179 11.6494 13.6432ZM20.6533 7.9111C21.434 8.69206 21.4339 9.95853 20.6533 10.7395L19.7639 11.6289C19.6662 11.7259 19.5077 11.7262 19.4103 11.6289L12.3392 4.55787C12.2418 4.46044 12.2422 4.302 12.3392 4.20432L13.2286 3.31491C14.0097 2.5342 15.2761 2.53397 16.0571 3.31491L20.6533 7.9111Z" fill="white"/>
</svg>
