<svg width="17" height="16" viewBox="0 0 17 16" fill="none" xmlns="http://www.w3.org/2000/svg">
<g clip-path="url(#clip0_1_3234)">
<path d="M10.167 4.66699C10.3672 4.66703 10.5585 4.7038 10.7363 4.76855C10.7579 4.7764 10.7797 4.7833 10.8008 4.79199C10.826 4.80239 10.8504 4.81459 10.875 4.82617C10.8957 4.83593 10.9163 4.84587 10.9365 4.85645C10.9715 4.87473 11.0056 4.8944 11.0391 4.91504C11.0461 4.91941 11.0535 4.92326 11.0605 4.92773C11.0947 4.94953 11.1277 4.97291 11.1602 4.99707C11.1706 5.00485 11.1811 5.01249 11.1914 5.02051C11.2168 5.04033 11.2415 5.06081 11.2656 5.08203C11.2835 5.09771 11.3002 5.11445 11.3174 5.13086C11.3367 5.14935 11.3556 5.16811 11.374 5.1875C11.3885 5.20271 11.4031 5.21765 11.417 5.2334C11.4396 5.25909 11.4614 5.28544 11.4824 5.3125C11.4924 5.32535 11.5021 5.33841 11.5117 5.35156C11.5312 5.37824 11.5495 5.40574 11.5674 5.43359C11.5798 5.45289 11.5919 5.47236 11.6035 5.49219C11.6169 5.51506 11.6302 5.53797 11.6426 5.56152C11.6538 5.58292 11.6635 5.60503 11.6738 5.62695C11.6874 5.65595 11.7009 5.68496 11.7129 5.71484C11.7148 5.71973 11.7168 5.72459 11.7188 5.72949C11.7917 5.9168 11.833 6.11992 11.833 6.33301V12.333C11.833 13.2534 11.0873 13.9998 10.167 14H4.16699C3.24652 14 2.5 13.2535 2.5 12.333V6.33301C2.50018 5.41268 3.24663 4.66699 4.16699 4.66699H10.167ZM12.834 2C13.7542 2.00035 14.5 2.74673 14.5 3.66699V9.66699C14.4999 10.3297 14.113 10.9019 13.5528 11.1704C13.3627 11.2615 13.167 11.1027 13.167 10.8919V6.33398C13.167 4.67735 11.8235 3.33434 10.167 3.33398H5.60886C5.39816 3.33398 5.23939 3.13839 5.3303 2.94831C5.59853 2.38749 6.17082 2 6.83398 2H12.834Z" fill="#8E8E8E"/>
</g>
<defs>
<clipPath id="clip0_1_3234">
<rect width="16" height="16" fill="white" transform="translate(0.5)"/>
</clipPath>
</defs>
</svg>
