<svg width="24" height="24" viewBox="0 0 24 24" fill="none" xmlns="http://www.w3.org/2000/svg">
<path d="M12 0C18.6274 0 24 5.37258 24 12C24 18.6274 18.6274 24 12 24C5.37258 24 0 18.6274 0 12C0 5.37258 5.37258 0 12 0Z" fill="#06A12B"/>
<path d="M12.998 4.25024V6.62045H11.6756V4.25024H12.998ZM12.8317 17.5511V19.7502H11.5093V17.5511H12.8317ZM13.3889 14.8306C13.3889 14.532 13.3418 14.2849 13.2476 14.0894C13.1533 13.894 13.0008 13.7229 12.7901 13.5763C12.5794 13.4297 12.2994 13.2831 11.9501 13.1365C11.2127 12.8433 10.5612 12.5419 9.9956 12.2324C9.43558 11.9229 8.99478 11.5373 8.67319 11.0758C8.35714 10.6142 8.19912 10.0142 8.19912 9.27573C8.19912 8.60241 8.36823 8.01596 8.70646 7.5164C9.05023 7.01684 9.52153 6.63131 10.1204 6.35981C10.7247 6.08288 11.4206 5.94441 12.2079 5.94441C12.8068 5.94441 13.3529 6.03129 13.8464 6.20505C14.3399 6.37881 14.7668 6.63131 15.1272 6.96254C15.4876 7.28834 15.7648 7.69016 15.9589 8.16801C16.153 8.64042 16.25 9.17799 16.25 9.78072H13.4472C13.4472 9.47121 13.4139 9.20514 13.3474 8.98251C13.2864 8.75988 13.1977 8.57797 13.0812 8.43679C12.9648 8.29561 12.8289 8.19244 12.6737 8.12728C12.5184 8.05669 12.3493 8.02139 12.1663 8.02139C11.8891 8.02139 11.6645 8.08113 11.4927 8.20059C11.3208 8.31462 11.196 8.46666 11.1184 8.65671C11.0408 8.84676 11.002 9.05853 11.002 9.29202C11.002 9.53637 11.0435 9.75086 11.1267 9.93548C11.2154 10.1147 11.3651 10.283 11.5758 10.4405C11.7865 10.5925 12.0749 10.75 12.4408 10.9129C13.1616 11.2115 13.8048 11.521 14.3704 11.8414C14.9359 12.1618 15.3795 12.5555 15.7011 13.0224C16.0282 13.484 16.1918 14.0813 16.1918 14.8144C16.1918 15.5203 16.0227 16.123 15.6844 16.6226C15.3462 17.1167 14.8749 17.4941 14.2705 17.7547C13.6662 18.0154 12.9675 18.1457 12.1747 18.1457C11.6424 18.1457 11.1129 18.0778 10.5861 17.942C10.0649 17.8063 9.58806 17.5864 9.15558 17.2823C8.72864 16.9728 8.38764 16.5628 8.13258 16.0524C7.87753 15.542 7.75 14.9148 7.75 14.1709H10.5528C10.5528 14.5347 10.5972 14.8388 10.6859 15.0831C10.7746 15.3275 10.8938 15.523 11.0435 15.6696C11.1988 15.8108 11.3735 15.9139 11.5675 15.9791C11.7616 16.0388 11.964 16.0687 12.1747 16.0687C12.4574 16.0687 12.6875 16.0144 12.865 15.9058C13.0424 15.7918 13.1727 15.6424 13.2559 15.4578C13.3446 15.2678 13.3889 15.0587 13.3889 14.8306Z" fill="white"/>
</svg>
