<svg width="24" height="24" viewBox="0 0 24 24" fill="none" xmlns="http://www.w3.org/2000/svg">
<circle cx="12" cy="12" r="12" fill="#D050FF"/>
<path d="M17.4434 14.5959L15.6275 16.3774C15.588 16.4161 15.5402 16.447 15.4872 16.4681C15.4341 16.4892 15.3768 16.5 15.319 16.5H6.71081C6.66974 16.5 6.62956 16.489 6.59521 16.4684C6.56086 16.4478 6.53384 16.4185 6.51747 16.384C6.5011 16.3496 6.49609 16.3115 6.50305 16.2744C6.51002 16.2374 6.52866 16.203 6.55668 16.1756L8.37393 14.394C8.4133 14.3554 8.46091 14.3246 8.5138 14.3035C8.56671 14.2824 8.62378 14.2715 8.68149 14.2714H17.2892C17.3303 14.2714 17.3704 14.2824 17.4048 14.303C17.4391 14.3236 17.4661 14.353 17.4826 14.3874C17.4989 14.4219 17.5039 14.46 17.4969 14.497C17.49 14.534 17.4713 14.5684 17.4434 14.5959ZM15.6275 11.0083C15.588 10.9696 15.5402 10.9387 15.4872 10.9176C15.4341 10.8966 15.3768 10.8857 15.319 10.8857H6.71081C6.66974 10.8857 6.62956 10.8967 6.59521 10.9173C6.56086 10.9379 6.53384 10.9672 6.51747 11.0017C6.5011 11.0362 6.49609 11.0742 6.50305 11.1113C6.51002 11.1483 6.52866 11.1827 6.55668 11.2101L8.37393 12.9917C8.4133 13.0303 8.46091 13.0611 8.5138 13.0822C8.56671 13.1033 8.62378 13.1142 8.68149 13.1143H17.2892C17.3303 13.1143 17.3704 13.1033 17.4048 13.0827C17.4391 13.0621 17.4661 13.0328 17.4826 12.9983C17.4989 12.9638 17.5039 12.9258 17.4969 12.8887C17.49 12.8517 17.4713 12.8173 17.4434 12.7899L15.6275 11.0083ZM6.71081 9.72857H15.319C15.3768 9.72859 15.4341 9.71773 15.4872 9.69664C15.5402 9.67556 15.588 9.6447 15.6275 9.606L17.4434 7.82443C17.4713 7.79696 17.49 7.76259 17.4969 7.72556C17.5039 7.68853 17.4989 7.65045 17.4826 7.61599C17.4661 7.58152 17.4391 7.55219 17.4048 7.53158C17.3704 7.51098 17.3303 7.5 17.2892 7.5H8.68149C8.62378 7.50009 8.56671 7.51101 8.5138 7.5321C8.46091 7.55318 8.4133 7.58397 8.37393 7.62257L6.55715 9.40414C6.52915 9.43158 6.51052 9.46592 6.50354 9.5029C6.49656 9.53989 6.50153 9.57795 6.51785 9.61239C6.53416 9.64684 6.56111 9.67617 6.59538 9.69681C6.62966 9.71745 6.66978 9.72848 6.71081 9.72857Z" fill="white"/>
</svg>
